# xmcd
#
# Track frame offsets:
# 150
# 16125
# 34625
# 51775
# 64175
# 78025
# 95450
# 110200
# 126475
# 141450
# 156425
# 173300
# 186800
# 203800
# 217650
# 230725
# 247200
# 262850
# 277325
# 293350
# 310625
# 328000
# 341625
#
# Disc length: 4757 seconds
#
#
# Revision: 0
# Processed by: cddbd v1.5.2PL0 Copyright (c) Steve Scherf et al.
# Submitted via: FreeRIP 2.96 
#
DISCID=4f129317
DTITLE=Denis Champoux - La Collection L'héritage
DYEAR=0008
DGENRE=Country
TTITLE0=Denis Champoux-Ta Vie,Sa Vie
TTITLE1=Denis Champoux-Vous and Moi,On Est Semblables
TTITLE2=Denis Champoux-L'amour Si Fort
TTITLE3=Denis Champoux-Comme A Chanté Marcel
TTITLE4=Denis Champoux-Mon Âme A Lucifer
TTITLE5=Denis Champoux-Ma Vie N'est Plus Rien Sans Toi
TTITLE6=Denis Champoux-La Vie Est Courte
TTITLE7=Denis Champoux-Si J'écoute Mon Coeur
TTITLE8=Denis Champoux-Sapre Moé Patience
TTITLE9=Denis Champoux-Je Ne Peux Pas T'oublier
TTITLE10=Denis Champoux-Pour Etre Heureux
TTITLE11=Denis Champoux-Si J'avais De L'argent
TTITLE12=Denis Champoux-Parents A Plein Temps
TTITLE13=Denis Champoux-Prends La Route
TTITLE14=Denis Champoux-Je Marcherai Derriere Tes Pas
TTITLE15=Denis Champoux-Tu Es Allé Un Peu Trop Loin
TTITLE16=Denis Champoux-Toi L'étranger Dans Le Miroir
TTITLE17=Denis Champoux-Qu'est-ce Qu'il T'a Dit
TTITLE18=Denis Champoux-Le Courage De M'en Aller
TTITLE19=Denis Champoux-Je Ne Suis Qu'un Poete
TTITLE20=Denis Champoux-Je Vois Briller L'étoile
TTITLE21=Denis Champoux-J'ai Besoin De Toi
TTITLE22=Denis Champoux-Salut Bobby !
EXTD=
EXTT0=
EXTT1=
EXTT2=
EXTT3=
EXTT4=
EXTT5=
EXTT6=
EXTT7=
EXTT8=
EXTT9=
EXTT10=
EXTT11=
EXTT12=
EXTT13=
EXTT14=
EXTT15=
EXTT16=
EXTT17=
EXTT18=
EXTT19=
EXTT20=
EXTT21=
EXTT22=
PLAYORDER=
